<?xml version="1.0" encoding="utf-8"?>
<!-- Generator: Adobe Illustrator 22.1.0, SVG Export Plug-In . SVG Version: 6.00 Build 0)  -->
<svg version="1.1" id="Capa_1" xmlns="http://www.w3.org/2000/svg" xmlns:xlink="http://www.w3.org/1999/xlink" x="0px" y="0px"
	 viewBox="0 0 50 50" style="enable-background:new 0 0 50 50;" xml:space="preserve">
<style type="text/css">
	.st0{fill:#1EBEA5;}
	.st1{fill:#FFFFFF;}
</style>
<g>
	<circle class="st0" cx="25" cy="25" r="25"/>
</g>
<g>
	<path id="WhatsApp_1_" class="st1" d="M41,24.6c0,8.6-7,15.6-15.7,15.6c-2.8,0-5.3-0.7-7.6-1.9L9,41l2.8-8.4
		c-1.4-2.3-2.3-5.1-2.3-8C9.6,16,16.6,9,25.3,9C34,9,41,16,41,24.6z M25.3,11.5c-7.3,0-13.2,5.9-13.2,13.1c0,2.9,0.9,5.5,2.5,7.7
		l-1.7,4.9l5.1-1.6c2.1,1.4,4.6,2.2,7.3,2.2c7.3,0,13.2-5.9,13.2-13.1S32.6,11.5,25.3,11.5z M33.2,28.2c-0.1-0.2-0.4-0.3-0.7-0.4
		c-0.4-0.2-2.3-1.1-2.6-1.2c-0.4-0.1-0.6-0.2-0.9,0.2c-0.3,0.4-1,1.2-1.2,1.5c-0.2,0.3-0.4,0.3-0.8,0.1c-0.4-0.2-1.6-0.6-3.1-1.9
		c-1.1-1-1.9-2.3-2.1-2.6c-0.2-0.4,0-0.6,0.2-0.8c0.2-0.2,0.4-0.4,0.6-0.7c0.2-0.2,0.3-0.4,0.4-0.6c0.1-0.3,0.1-0.5,0-0.7
		c-0.1-0.2-0.9-2.1-1.2-2.8c-0.3-0.8-0.6-0.6-0.9-0.6c-0.2,0-0.5,0-0.7,0c-0.3,0-0.7,0.1-1,0.5c-0.4,0.4-1.3,1.3-1.3,3.2
		c0,1.9,1.4,3.7,1.6,4c0.2,0.3,2.7,4.2,6.6,5.8c3.9,1.5,3.9,1,4.6,1c0.7-0.1,2.3-0.9,2.6-1.8C33.3,29.1,33.3,28.3,33.2,28.2z"/>
</g>
</svg>
